<?xml version="1.0" encoding="iso-8859-1"?>
<!-- Uploaded to: SVG Repo, www.svgrepo.com, Generator: SVG Repo Mixer Tools -->
<svg version="1.1" id="Layer_1" xmlns="http://www.w3.org/2000/svg" xmlns:xlink="http://www.w3.org/1999/xlink" 
	 viewBox="0 0 512 512" xml:space="preserve">
<rect x="0.263" y="184.424" style="fill:#FF7956;" width="511.467" height="327.576"/>
<path style="opacity:0.55;fill:#CD2A00;enable-background:new    ;" d="M343.37,511.141H165.233V322.349
	c0-49.191,39.877-89.068,89.068-89.068l0,0c49.191,0,89.068,39.877,89.068,89.068v188.792H343.37z"/>
<polygon style="fill:#FFE477;" points="121.466,0 511.732,0 511.732,184.422 0.263,184.422 0.263,0 55.115,0 "/>
<g>
	<path style="opacity:0.29;fill:#CD2A00;enable-background:new    ;" d="M488.079,0.266v77.872c0,48.09-38.985,87.077-87.077,87.077
		H0.263v19.474h511.469V0.266H488.079z"/>
	<polygon style="opacity:0.55;fill:#CD2A00;enable-background:new    ;" points="121.466,184.422 511.732,184.422 511.732,209.508 
		0.263,209.508 0.263,184.422 55.115,184.422 	"/>
</g>
<g>
	<path style="fill:#3E3B43;" d="M398.887,42.323H102.136c-4.328,0-7.837-3.509-7.837-7.837s3.509-7.837,7.837-7.837h296.751
		c4.328,0,7.837,3.509,7.837,7.837S403.215,42.323,398.887,42.323z"/>
	<path style="fill:#3E3B43;" d="M398.887,157.783H102.136c-4.328,0-7.837-3.509-7.837-7.837c0-4.328,3.509-7.837,7.837-7.837
		h296.751c4.328,0,7.837,3.509,7.837,7.837C406.723,154.274,403.215,157.783,398.887,157.783z"/>
</g>
<g>
	<rect x="128.385" y="345.861" style="fill:#CD2A00;" width="57.469" height="166.139"/>
	<rect x="324.303" y="345.861" style="fill:#CD2A00;" width="57.469" height="166.139"/>
</g>
<g>
	<rect x="111.144" y="310.335" style="fill:#AB2300;" width="94.563" height="35.527"/>
	<rect x="305.756" y="310.335" style="fill:#AB2300;" width="94.563" height="35.527"/>
	<rect x="185.854" y="484.833" style="fill:#AB2300;" width="138.449" height="27.163"/>
</g>
<g>
	<rect x="429.712" y="268.016" style="fill:#FFE477;" width="82.024" height="138.971"/>
	<rect x="0.263" y="268.016" style="fill:#FFE477;" width="81.92" height="138.971"/>
</g>
<path style="fill:#CD2A00;" d="M254.302,184.422c-27.599,0-53.123,8.878-73.873,23.937c0,0-24.404,18.28-33.509,36.189
	c-10.183,20.028-18.534,41.677-18.534,65.791l57.808,0.046c0-35.487,26.772-64.706,61.218-68.6v243.052
	c0,4.328,3.509,7.837,7.837,7.837s7.837-3.509,7.837-7.837V241.784c34.446,3.893,61.218,33.113,61.218,68.6l55.915-0.046
	C380.217,240.797,323.843,184.422,254.302,184.422z"/>
<g>
	<path style="fill:#3E3B43;" d="M127.891,68.022c-6.4,0-10.029,3.534-10.029,10.985v26.649c0,7.45,3.63,10.984,10.22,10.984
		c8.692,0,9.456-6.209,9.743-10.22c0.191-2.961,2.865-3.916,6.113-3.916c4.298,0,6.304,1.241,6.304,6.113
		c0,11.558-9.456,18.913-22.829,18.913c-12.035,0-21.969-5.922-21.969-21.873V79.007c0-15.951,10.029-21.874,22.064-21.874
		c13.276,0,22.733,7.068,22.733,18.149c0,4.966-2.006,6.113-6.209,6.113c-3.534,0-6.113-1.05-6.209-3.916
		C137.634,74.517,136.965,68.022,127.891,68.022z"/>
	<path style="fill:#3E3B43;" d="M158.645,60.953c0-2.674,3.056-3.82,6.209-3.82c3.056,0,6.209,1.146,6.209,3.82v62.087
		c0,2.579-3.152,3.916-6.209,3.916c-3.151,0-6.209-1.337-6.209-3.916V60.953z"/>
	<path style="fill:#3E3B43;" d="M215.477,123.04L194.94,84.642v38.398c0,2.579-3.152,3.916-6.209,3.916
		c-3.151,0-6.209-1.337-6.209-3.916V61.049c0-2.675,3.056-3.916,6.209-3.916c4.49,0,6.304,0.955,9.265,6.591l18.435,35.628V60.953
		c0-2.674,3.056-3.82,6.209-3.82c3.056,0,6.209,1.146,6.209,3.82v62.087c0,2.579-3.152,3.916-6.209,3.916
		C219.679,126.956,217.101,126.001,215.477,123.04z"/>
	<path style="fill:#3E3B43;" d="M252.726,87.126h14.519c2.484,0,3.916,2.389,3.916,4.967c0,2.197-1.241,4.776-3.916,4.776h-14.519
		v19.199h27.031c2.484,0,3.916,2.579,3.916,5.54c0,2.58-1.241,5.349-3.916,5.349h-34.004c-2.77,0-5.445-1.337-5.445-3.916V61.049
		c0-2.579,2.674-3.916,5.445-3.916h34.004c2.675,0,3.916,2.77,3.916,5.349c0,2.961-1.433,5.54-3.916,5.54h-27.031L252.726,87.126
		L252.726,87.126z"/>
	<path style="fill:#3E3B43;" d="M322.644,101.835c-1.051,1.91-2.675,2.484-4.203,2.484s-3.056-0.574-4.107-2.484l-10.985-20.632
		v41.837c0,2.579-3.152,3.916-6.209,3.916c-3.151,0-6.209-1.337-6.209-3.916V63.342c0-4.585,3.056-6.209,6.209-6.209
		c4.49,0,6.495,0.955,9.648,6.591l11.749,21.396l11.749-21.396c3.152-5.636,5.254-6.591,9.743-6.591
		c3.151,0,6.209,1.624,6.209,6.209v59.698c0,2.579-3.151,3.916-6.209,3.916c-3.152,0-6.209-1.337-6.209-3.916V81.967
		L322.644,101.835z"/>
	<path style="fill:#3E3B43;" d="M352.823,121.799c0-0.191,0.096-0.574,0.191-0.955l18.435-60.081
		c0.86-2.865,4.394-4.203,7.928-4.203c3.63,0,7.164,1.337,8.024,4.203l18.435,60.081c0.096,0.382,0.191,0.669,0.191,0.955
		c0,2.961-4.489,5.158-7.833,5.158c-2.101,0-3.725-0.669-4.203-2.484l-3.63-12.704h-21.874l-3.63,12.704
		c-0.478,1.815-2.101,2.484-4.203,2.484C357.312,126.956,352.823,124.855,352.823,121.799z M387.687,102.026l-8.31-29.324
		l-8.31,29.324H387.687z"/>
</g>
</svg>